<svg xmlns="http://www.w3.org/2000/svg" viewBox="0 0 240 40" width="240" height="40">
  <!-- Blockdaemon Logo - Geometric BD Icon -->
  <g id="bd-icon">
    <!-- The geometric shape that forms BD -->
    <path d="M5 5 L5 35 L15 35 L25 25 L25 20 L20 15 L25 15 L25 10 L20 5 L5 5 Z 
             M15 10 L20 10 L20 15 L15 15 L15 10 Z 
             M15 20 L20 20 L20 25 L15 30 L10 30 L10 10 L15 10 L15 20 Z" 
          fill="#000000" fill-rule="evenodd"/>
    
    <path d="M30 5 L30 35 L45 35 L50 30 L50 10 L45 5 L30 5 Z 
             M35 10 L40 10 L45 15 L45 25 L40 30 L35 30 L35 10 Z" 
          fill="#000000" fill-rule="evenodd"/>
  </g>
  
  <!-- BLOCKDAEMON Text -->
  <text x="60" y="26" font-family="Arial, Helvetica, sans-serif" font-size="16" font-weight="600" fill="#000000" letter-spacing="0.5">BLOCKDAEMON</text>
</svg>